<?xml version="1.0" standalone="no"?>
<!DOCTYPE svg PUBLIC "-//W3C//DTD SVG 20010904//EN"
 "http://www.w3.org/TR/2001/REC-SVG-20010904/DTD/svg10.dtd">
<svg version="1.0" xmlns="http://www.w3.org/2000/svg"
 width="260.000000pt" height="260.000000pt" viewBox="0 0 260.000000 260.000000"
 preserveAspectRatio="xMidYMid meet">
<metadata>
Created by potrace 1.11, written by Peter Selinger 2001-2013
</metadata>
<g transform="translate(0.000000,260.000000) scale(0.100000,-0.100000)"
fill="#000000" stroke="none">
<path d="M1237 2264 c-1 -1 -36 -5 -77 -9 -88 -8 -90 -9 -83 -35 4 -16 13 -20
37 -18 18 1 37 -1 43 -5 6 -4 14 -47 17 -97 7 -88 8 -90 33 -90 25 0 25 0 19
68 -4 37 -9 82 -13 100 -4 27 -2 32 16 33 11 1 26 3 31 4 6 1 16 3 24 4 9 1
12 10 8 26 -3 19 -10 24 -29 23 -13 -2 -25 -3 -26 -4z"/>
<path d="M1451 2197 c-35 -177 -36 -207 -7 -207 16 0 20 11 33 75 4 22 8 42 8
45 1 3 5 30 9 60 4 30 8 59 9 64 1 5 -8 11 -20 12 -19 3 -23 -3 -32 -49z"/>
<path d="M1679 2198 c-3 -7 -7 -62 -14 -164 -9 -147 -6 -149 137 -52 59 40
108 76 108 80 0 4 -9 12 -20 18 -18 9 -33 3 -101 -45 l-80 -57 6 69 c4 37 8
80 10 95 2 20 -3 31 -21 43 -13 8 -24 14 -25 13z"/>
<path d="M779 2117 c-9 -7 -15 -21 -13 -32 18 -135 35 -240 39 -244 10 -9 46
34 42 50 -3 13 11 28 49 54 45 29 58 34 74 25 28 -15 69 6 49 25 -13 11 -217
135 -222 135 -1 0 -9 -6 -18 -13z m115 -106 c5 -7 -53 -46 -59 -39 -1 1 -5 22
-9 45 l-5 42 34 -21 c19 -11 37 -23 39 -27z"/>
<path d="M1923 1883 c-61 -49 -90 -80 -85 -88 4 -7 26 -34 49 -60 36 -40 45
-46 58 -35 18 15 19 24 3 42 -49 53 -50 54 -32 73 16 16 19 14 53 -25 33 -38
38 -40 55 -27 19 14 18 16 -15 56 -33 42 -33 43 -14 57 16 12 21 12 30 1 51
-68 53 -69 75 -54 l21 14 -28 34 c-15 19 -39 46 -53 61 l-25 27 -92 -76z"/>
<path d="M493 1842 c-12 -21 -31 -51 -43 -68 l-20 -31 100 -67 c54 -36 101
-66 104 -66 5 0 86 127 86 134 0 3 -9 10 -20 16 -17 9 -23 5 -46 -32 -15 -24
-28 -44 -29 -46 -2 -2 -13 1 -24 7 -20 11 -20 12 9 59 27 43 28 48 13 60 -24
17 -25 17 -57 -33 -24 -39 -30 -44 -45 -33 -9 7 -17 13 -19 14 -2 1 8 20 22
43 31 48 32 57 8 70 -14 8 -22 3 -39 -27z"/>
<path d="M389 1506 c-29 -14 -45 -46 -53 -107 -7 -46 -7 -47 26 -53 70 -13
125 -19 168 -20 39 -1 45 2 45 19 0 16 -8 21 -37 23 -53 4 -49 27 10 54 32 16
48 30 50 46 4 26 -6 27 -52 6 -34 -17 -35 -17 -58 9 -27 31 -66 40 -99 23z
m60 -50 c6 -7 8 -26 5 -44 -5 -25 -11 -31 -28 -27 -11 2 -24 4 -28 4 -11 1
-10 39 2 62 12 22 33 25 49 5z"/>
<path d="M531 1134 c-11 -13 -10 -18 8 -35 41 -38 39 -96 -3 -119 -65 -34
-122 2 -119 75 1 41 -1 45 -23 45 -48 0 -44 -98 6 -148 47 -47 115 -51 172
-10 53 37 64 112 25 169 -26 38 -46 46 -66 23z"/>
<path d="M1856 814 c-27 -30 -47 -56 -45 -58 2 -2 44 -38 92 -80 l89 -75 53
57 c50 53 53 58 37 73 -16 16 -19 15 -56 -22 -30 -32 -41 -37 -52 -28 -19 16
-18 19 16 59 35 41 36 46 12 59 -14 8 -25 2 -52 -29 -32 -36 -36 -38 -53 -23
-17 16 -16 18 20 55 37 38 37 40 19 54 -11 8 -22 14 -25 13 -3 -1 -28 -25 -55
-55z"/>
<path d="M667 802 c-20 -22 -22 -70 -5 -107 8 -19 9 -28 0 -37 -16 -16 -45 10
-39 34 3 11 -2 22 -15 29 -26 14 -32 6 -32 -38 0 -26 7 -42 28 -59 35 -31 61
-30 92 1 25 25 26 51 4 109 -6 17 -6 27 1 32 18 11 39 -5 39 -30 0 -31 35 -54
44 -30 29 74 -67 152 -117 96z"/>
<path d="M893 561 l-51 -109 25 -11 c22 -10 25 -8 35 20 9 27 14 30 37 24 67
-16 82 -17 106 -1 13 9 28 31 33 49 14 50 -9 84 -74 113 -30 13 -56 24 -58 24
-1 0 -25 -49 -53 -109z m135 -9 c-3 -24 -7 -27 -37 -25 -45 2 -53 12 -34 50
15 32 16 32 45 17 23 -12 29 -21 26 -42z"/>
<path d="M1613 640 c-86 -52 -88 -161 -4 -217 60 -41 141 -21 182 44 l20 32
-21 11 c-19 10 -25 8 -50 -21 -22 -27 -34 -33 -64 -33 -59 0 -94 61 -66 113
11 22 64 45 84 38 17 -7 25 10 18 36 -6 23 -58 22 -99 -3z"/>
<path d="M1233 467 c-29 -68 -53 -126 -53 -130 0 -4 12 -7 26 -7 17 0 28 6 31
20 5 18 14 20 73 20 60 0 69 -3 75 -20 6 -19 55 -30 55 -12 0 4 -24 62 -52
129 -48 110 -56 123 -78 123 -22 0 -30 -13 -77 -123z m95 11 c16 -44 12 -52
-25 -55 l-32 -2 17 44 c9 25 19 45 22 45 3 0 11 -15 18 -32z"/>
</g>
</svg>
